<svg version="1.0" xmlns="http://www.w3.org/2000/svg"
 viewBox="0 0 64.000000 64.000000"
 preserveAspectRatio="xMidYMid meet">

<g transform="translate(0.000000,64.000000) scale(0.100000,-0.100000)"
fill="#000000" stroke="none">
<path d="M430 531 c0 -16 6 -31 13 -34 6 -2 9 -7 6 -11 -4 -4 -35 7 -68 24
l-61 31 -128 -66 c-190 -97 -192 -98 -192 -141 0 -25 4 -35 13 -31 45 18 42
23 41 -85 0 -57 3 -110 7 -119 5 -9 3 -21 -3 -27 -6 -6 -8 -22 -4 -36 9 -36
50 -45 80 -17 16 15 35 21 69 21 40 0 47 -3 47 -20 0 -11 5 -20 10 -20 6 0 10
30 10 70 l0 70 50 0 50 0 0 -70 c0 -40 4 -70 10 -70 6 0 10 9 10 20 0 17 7 20
48 20 36 0 54 -5 67 -20 10 -11 26 -20 35 -20 34 0 66 59 40 75 -6 4 -7 13 -2
23 5 9 8 63 8 120 -1 79 2 101 11 97 46 -18 44 -19 41 21 -3 34 -8 42 -45 62
-39 21 -43 27 -43 63 0 21 5 39 10 39 6 0 10 14 10 30 l0 30 -70 0 -70 0 0
-29z m120 -1 c0 -5 -22 -10 -50 -10 -27 0 -50 5 -50 10 0 6 23 10 50 10 28 0
50 -4 50 -10z m-85 -86 c131 -68 168 -95 153 -109 -3 -3 -71 29 -151 71 l-147
75 -147 -75 c-80 -42 -149 -74 -152 -71 -14 14 24 42 154 110 77 40 141 74
142 74 1 1 68 -33 148 -75z m65 46 c0 -5 -9 -10 -20 -10 -11 0 -20 -4 -20 -10
0 -5 9 -10 20 -10 11 0 20 -4 20 -10 0 -13 -3 -13 -35 2 -36 16 -33 48 5 48
17 0 30 -4 30 -10z m-102 -87 l108 -58 -27 -22 c-26 -22 -36 -23 -189 -23
-153 0 -163 1 -189 23 l-27 22 105 57 c58 31 107 57 109 57 1 1 51 -25 110
-56z m-303 -113 c0 -18 -6 -26 -23 -28 -24 -4 -38 18 -28 44 3 9 15 14 28 12
17 -2 23 -10 23 -28z m440 0 c0 -18 -6 -26 -23 -28 -24 -4 -38 18 -28 44 3 9
15 14 28 12 17 -2 23 -10 23 -28z m-67 -32 c3 -17 -11 -18 -177 -18 -144 0
-181 3 -181 13 0 8 3 17 7 21 4 3 84 5 177 4 153 -3 171 -5 174 -20z m-373
-48 c0 -18 -6 -26 -23 -28 -13 -2 -25 3 -28 12 -10 26 4 48 28 44 17 -2 23
-10 23 -28z m440 0 c0 -18 -6 -26 -23 -28 -13 -2 -25 3 -28 12 -10 26 4 48 28
44 17 -2 23 -10 23 -28z m-72 -10 c4 -17 0 -20 -34 -20 -21 0 -39 5 -39 10 0
6 -40 10 -100 10 -60 0 -100 -4 -100 -10 0 -5 -18 -10 -39 -10 -34 0 -38 3
-34 20 5 19 14 20 173 20 159 0 168 -1 173 -20z m-93 -30 c0 -6 -33 -10 -80
-10 -47 0 -80 4 -80 10 0 6 33 10 80 10 47 0 80 -4 80 -10z m-275 -40 c0 -18
-6 -26 -23 -28 -24 -4 -38 18 -28 44 3 9 15 14 28 12 17 -2 23 -10 23 -28z
m95 20 c0 -5 7 -10 15 -10 8 0 15 -4 15 -10 0 -5 -22 -10 -49 -10 -40 0 -50 3
-54 20 -4 17 0 20 34 20 21 0 39 -4 39 -10z m273 -10 c-4 -17 -14 -20 -54 -20
-27 0 -49 5 -49 10 0 6 7 10 15 10 8 0 15 5 15 10 0 6 18 10 39 10 34 0 38 -3
34 -20z m72 -10 c0 -18 -6 -26 -23 -28 -13 -2 -25 3 -28 12 -10 26 4 48 28 44
17 -2 23 -10 23 -28z m-315 -51 c0 -18 -5 -20 -52 -17 -41 2 -54 7 -56 21 -3
14 5 17 52 17 50 0 56 -2 56 -21z m248 4 c-2 -14 -15 -19 -56 -21 -47 -3 -52
-1 -52 17 0 19 6 21 56 21 47 0 55 -3 52 -17z m-373 -33 c0 -18 -6 -26 -23
-28 -24 -4 -38 18 -28 44 3 9 15 14 28 12 17 -2 23 -10 23 -28z m440 0 c0 -18
-6 -26 -23 -28 -24 -4 -38 18 -28 44 3 9 15 14 28 12 17 -2 23 -10 23 -28z"/>
<path d="M280 410 c-11 -11 -20 -29 -20 -40 0 -26 34 -60 60 -60 26 0 60 34
60 60 0 11 -9 29 -20 40 -11 11 -29 20 -40 20 -11 0 -29 -9 -40 -20z m30 -15
c0 -8 -7 -15 -16 -15 -14 0 -14 3 -4 15 7 8 14 15 16 15 2 0 4 -7 4 -15z m40
0 c10 -12 10 -15 -4 -15 -9 0 -16 7 -16 15 0 8 2 15 4 15 2 0 9 -7 16 -15z
m-40 -51 c0 -14 -3 -14 -15 -4 -8 7 -15 14 -15 16 0 2 7 4 15 4 8 0 15 -7 15
-16z m50 12 c0 -2 -7 -9 -15 -16 -12 -10 -15 -10 -15 4 0 9 7 16 15 16 8 0 15
-2 15 -4z"/>
<path d="M150 350 c0 -5 23 -10 50 -10 28 0 50 5 50 10 0 6 -22 10 -50 10 -27
0 -50 -4 -50 -10z"/>
<path d="M390 350 c0 -5 23 -10 50 -10 28 0 50 5 50 10 0 6 -22 10 -50 10 -27
0 -50 -4 -50 -10z"/>
</g>
</svg>
