<svg version="1.0" xmlns="http://www.w3.org/2000/svg"
  viewBox="0 0 85.000000 85.000000"
 preserveAspectRatio="xMidYMid meet">

<g transform="translate(0.000000,85.000000) scale(0.100000,-0.100000)" stroke="none">
<path d="M435 675 c-62 -55 -45 -60 21 -5 41 33 50 37 64 27 181 -153 260
-223 260 -234 0 -7 -4 -13 -8 -13 -5 0 -64 47 -132 105 -69 58 -130 105 -136
105 -7 0 -48 -30 -91 -67 -144 -124 -172 -145 -184 -137 -9 5 8 26 52 66 35
32 57 58 49 58 -8 0 -41 -25 -73 -54 -53 -49 -57 -57 -47 -76 9 -16 18 -20 36
-16 28 7 31 -5 9 -37 -13 -20 -12 -26 8 -57 16 -26 23 -30 25 -17 3 14 15 17
63 17 52 0 59 -2 59 -20 0 -18 -7 -20 -75 -20 -63 0 -76 -3 -85 -19 -7 -15 -6
-23 5 -35 19 -19 19 -50 0 -66 -8 -7 -15 -20 -15 -28 0 -12 -3 -13 -11 -5 -7
7 -10 47 -7 112 3 88 1 101 -13 101 -24 0 -69 39 -69 60 0 10 -16 34 -36 52
-60 58 -43 140 33 154 21 4 51 17 66 30 37 31 78 30 115 -1 26 -22 31 -23 48
-10 17 13 17 14 2 15 -10 0 -32 9 -50 20 -43 26 -78 25 -121 -4 -19 -13 -49
-27 -66 -31 -45 -10 -81 -57 -81 -107 0 -33 6 -46 35 -74 19 -18 35 -39 35
-46 1 -18 31 -53 57 -67 17 -8 23 -21 23 -43 0 -30 0 -31 -20 -13 -11 10 -20
24 -20 32 0 7 -4 13 -10 13 -20 0 -9 -33 20 -60 26 -25 30 -35 30 -84 0 -44
-3 -56 -16 -56 -8 0 -12 -4 -9 -10 8 -14 612 -14 620 0 3 6 0 10 -8 10 -7 0
-19 11 -25 25 -11 23 -16 25 -87 25 -68 0 -75 2 -75 20 0 18 7 20 60 20 33 0
60 -4 60 -10 0 -5 5 -10 10 -10 6 0 10 5 10 11 0 6 7 17 15 26 14 13 13 18 -2
44 -16 27 -16 31 0 58 15 26 16 31 2 44 -17 17 -21 52 -5 42 19 -12 50 6 50
29 0 16 -20 39 -66 76 -61 49 -65 55 -62 89 2 29 8 37 26 39 20 3 22 0 22 -47
0 -27 5 -53 11 -56 7 -5 9 14 7 57 l-3 63 -35 0 c-33 0 -35 -2 -40 -39 l-5
-39 -67 56 c-36 31 -75 57 -85 57 -10 0 -41 -20 -68 -45z m85 -45 c0 -5 -9
-10 -21 -10 -11 0 -17 -4 -14 -10 3 -5 21 -10 40 -10 25 0 46 -10 80 -40 l46
-40 -105 0 c-64 0 -106 -4 -106 -10 0 -6 46 -10 119 -10 93 0 121 -3 131 -15
11 -13 -11 -15 -191 -15 -179 0 -201 2 -183 14 11 8 36 16 55 18 33 4 34 4 9
15 l-24 10 21 12 c12 6 58 11 102 11 44 0 83 5 86 10 4 6 -20 10 -64 10 -39 0
-71 3 -71 7 0 11 64 62 78 63 6 0 12 -4 12 -10z m200 -200 c0 -19 -7 -20 -205
-20 -130 0 -205 -4 -205 -10 0 -5 23 -10 50 -10 38 0 50 -4 50 -15 0 -12 -14
-15 -69 -15 -67 0 -100 13 -67 26 10 4 16 18 16 35 l0 29 215 0 c208 0 215 -1
215 -20z m-260 -125 c0 -50 4 -85 10 -85 6 0 10 35 10 85 0 78 2 85 20 85 15
0 20 -7 20 -26 0 -14 4 -23 10 -19 6 3 10 15 10 26 0 12 7 19 20 19 19 0 20
-7 20 -125 0 -118 -1 -125 -20 -125 -18 0 -20 7 -20 85 0 109 -18 112 -22 3
-3 -70 -6 -83 -20 -86 -13 -3 -18 3 -18 22 0 14 -4 26 -10 26 -5 0 -10 -11
-10 -25 0 -16 -6 -25 -15 -25 -13 0 -15 21 -15 125 0 104 2 125 15 125 12 0
15 -16 15 -85z m285 70 c0 -5 -28 -11 -62 -13 -75 -4 -85 -22 -13 -22 48 0 50
-1 50 -29 0 -17 6 -31 16 -35 33 -13 0 -26 -67 -26 -55 0 -69 3 -69 15 0 11
12 15 44 15 25 0 48 5 51 10 4 6 -13 10 -44 10 l-51 0 0 45 0 46 73 -3 c39 -2
72 -7 72 -13z m-335 -110 c0 -12 -14 -15 -69 -15 -65 0 -90 8 -74 24 3 3 37 6
75 6 54 0 68 -3 68 -15z m0 -80 l0 -46 -72 3 c-46 2 -73 7 -76 16 -3 9 13 12
57 12 33 0 63 5 66 10 4 6 -13 10 -44 10 -44 0 -51 3 -51 20 0 18 7 20 60 20
l60 0 0 -45z m338 -27 c-3 -9 -30 -14 -76 -16 -60 -2 -72 0 -72 13 0 12 14 15
76 15 56 0 75 -3 72 -12z"/>
<path d="M555 260 c3 -5 8 -10 11 -10 2 0 4 5 4 10 0 6 -5 10 -11 10 -5 0 -7
-4 -4 -10z"/>
<path d="M356 611 c-4 -5 -2 -12 3 -15 5 -4 12 -2 15 3 4 5 2 12 -3 15 -5 4
-12 2 -15 -3z"/>
</g>
</svg>
