<svg version="1.0" xmlns="http://www.w3.org/2000/svg"
 viewBox="0 0 66.000000 66.000000"
 preserveAspectRatio="xMidYMid meet">

<g transform="translate(0.000000,66.000000) scale(0.100000,-0.100000)" stroke="none">
<path d="M110 600 c0 -16 5 -30 10 -30 6 0 10 -7 10 -15 0 -10 -10 -15 -34
-15 -33 0 -34 -2 -61 -77 -20 -53 -25 -78 -17 -81 7 -2 12 -12 12 -23 0 -10 5
-19 10 -19 6 0 10 -48 10 -124 0 -115 -1 -124 -20 -129 -14 -3 -20 -14 -20
-31 l0 -26 320 0 320 0 0 30 c0 23 -4 30 -20 30 -19 0 -20 7 -20 125 0 77 4
125 10 125 6 0 10 9 10 19 0 11 5 21 12 23 8 3 3 28 -17 81 l-28 77 -183 0
c-157 0 -184 2 -184 15 0 8 5 15 10 15 6 0 10 14 10 30 l0 30 -70 0 -70 0 0
-30z m120 0 c0 -5 -22 -10 -50 -10 -27 0 -50 5 -50 10 0 6 23 10 50 10 28 0
50 -4 50 -10z m-20 -70 c0 -38 -2 -40 -30 -40 -28 0 -30 2 -30 40 0 38 2 40
30 40 28 0 30 -2 30 -40z m-80 -35 c0 -23 3 -25 50 -25 47 0 50 2 50 25 l0 25
178 0 178 0 17 -53 c9 -30 17 -57 17 -60 0 -4 -130 -7 -290 -7 -160 0 -290 3
-290 7 0 3 8 30 17 60 15 48 20 53 45 53 23 0 28 -4 28 -25z m480 -125 c0 -14
-547 -14 -555 0 -4 7 90 10 274 10 181 0 281 -4 281 -10z m-360 -105 l0 -75
-90 0 -90 0 0 75 0 75 90 0 90 0 0 -75z m140 -50 l0 -125 -60 0 -60 0 0 125 0
125 60 0 60 0 0 -125z m200 50 l0 -75 -90 0 -90 0 0 75 0 75 90 0 90 0 0 -75z
m-500 -135 c0 -22 -4 -40 -10 -40 -5 0 -10 18 -10 40 0 22 5 40 10 40 6 0 10
-18 10 -40z m40 0 c0 -22 -4 -40 -10 -40 -5 0 -10 18 -10 40 0 22 5 40 10 40
6 0 10 -18 10 -40z m40 0 c0 -22 -4 -40 -10 -40 -5 0 -10 18 -10 40 0 22 5 40
10 40 6 0 10 -18 10 -40z m40 0 c0 -22 -4 -40 -10 -40 -5 0 -10 18 -10 40 0
22 5 40 10 40 6 0 10 -18 10 -40z m40 0 c0 -22 -4 -40 -10 -40 -5 0 -10 18
-10 40 0 22 5 40 10 40 6 0 10 -18 10 -40z m180 0 c0 -22 -4 -40 -10 -40 -5 0
-10 18 -10 40 0 22 5 40 10 40 6 0 10 -18 10 -40z m40 0 c0 -22 -4 -40 -10
-40 -5 0 -10 18 -10 40 0 22 5 40 10 40 6 0 10 -18 10 -40z m40 0 c0 -22 -4
-40 -10 -40 -5 0 -10 18 -10 40 0 22 5 40 10 40 6 0 10 -18 10 -40z m40 0 c0
-22 -4 -40 -10 -40 -5 0 -10 18 -10 40 0 22 5 40 10 40 6 0 10 -18 10 -40z
m40 0 c0 -22 -4 -40 -10 -40 -5 0 -10 18 -10 40 0 22 5 40 10 40 6 0 10 -18
10 -40z m35 -70 c4 -7 -97 -10 -295 -10 -198 0 -299 3 -295 10 8 14 582 14
590 0z"/>
</g>
</svg>
