<svg version="1.0" xmlns="http://www.w3.org/2000/svg"
 viewBox="0 0 50.000000 50.000000"
 preserveAspectRatio="xMidYMid meet">

<g transform="translate(0.000000,50.000000) scale(0.100000,-0.100000)" stroke="none">
<path d="M206 445 c-31 -48 -36 -62 -36 -115 0 -33 4 -60 10 -60 6 0 10 25 10
55 l0 55 60 0 60 0 0 -55 c0 -30 5 -55 10 -55 6 0 10 27 10 60 0 53 -5 67 -36
115 -20 30 -40 55 -44 55 -4 0 -24 -25 -44 -55z m72 -10 l22 -35 -50 0 -50 0
22 35 c13 19 25 35 28 35 3 0 15 -16 28 -35z"/>
<path d="M22 403 c-14 -31 -18 -74 -20 -220 l-3 -183 74 0 74 0 7 32 c7 36 71
108 96 108 25 0 89 -72 96 -108 l7 -32 73 0 74 0 0 168 c0 128 -4 180 -16 215
-9 26 -20 50 -25 53 -15 9 -49 -84 -49 -132 l0 -44 -160 0 -160 0 0 38 c0 41
-26 128 -41 138 -5 3 -17 -12 -27 -33z m38 -40 c0 -7 -7 -13 -15 -13 -16 0
-19 9 -9 35 5 13 8 14 15 3 5 -7 9 -19 9 -25z m410 0 c0 -7 -7 -13 -15 -13
-16 0 -19 9 -9 35 5 13 8 14 15 3 5 -7 9 -19 9 -25z m-400 -78 l0 -45 180 0
180 0 0 45 c0 41 2 45 25 45 l25 0 0 -155 0 -155 -54 0 c-53 0 -55 1 -66 35
-10 30 -91 115 -110 115 -19 0 -100 -85 -110 -115 -11 -34 -13 -35 -66 -35
l-54 0 0 155 0 155 25 0 c23 0 25 -4 25 -45z"/>
<path d="M86 175 c-12 -33 -7 -55 15 -55 17 0 20 5 17 32 -3 35 -22 48 -32 23z"/>
<path d="M387 183 c-4 -3 -7 -19 -7 -35 0 -21 5 -28 20 -28 20 0 26 22 14 54
-7 17 -16 20 -27 9z"/>
<path d="M111 339 c-14 -40 -14 -69 -1 -69 6 0 10 11 10 25 0 14 5 25 10 25 6
0 10 -11 10 -25 0 -14 5 -25 10 -25 6 0 10 8 10 19 0 26 -20 81 -30 81 -4 0
-13 -14 -19 -31z"/>
<path d="M351 339 c-14 -40 -14 -69 -1 -69 6 0 10 11 10 25 0 14 5 25 10 25 6
0 10 -11 10 -25 0 -14 5 -25 10 -25 6 0 10 8 10 19 0 26 -20 81 -30 81 -4 0
-13 -14 -19 -31z"/>
<path d="M222 338 c-14 -14 -16 -68 -3 -68 5 0 11 12 13 28 2 16 9 27 18 27 9
0 16 -11 18 -27 4 -37 22 -36 22 0 0 31 -16 52 -40 52 -9 0 -21 -5 -28 -12z"/>
</g>
</svg>
