<svg viewBox="0 0 64.000000 64.000000"
 preserveAspectRatio="xMidYMid meet">

<g transform="translate(0.000000,64.000000) scale(0.100000,-0.100000)"
fill="#000000" stroke="none">
<path d="M162 565 c-85 -41 -155 -81 -159 -91 -4 -12 1 -22 15 -32 21 -14 22
-21 22 -189 0 -169 -1 -175 -22 -193 -19 -15 -21 -22 -12 -37 10 -17 32 -18
314 -18 282 0 304 1 314 18 9 15 7 22 -11 37 -22 18 -23 24 -23 193 0 168 1
175 22 189 14 10 19 20 15 32 -5 13 -298 167 -317 166 -3 -1 -74 -34 -158 -75z
m304 -15 c81 -39 150 -72 152 -75 2 -2 1 -8 -2 -14 -4 -6 -66 19 -150 60
l-144 70 -146 -70 c-84 -40 -148 -65 -152 -60 -3 6 -4 12 -3 14 3 2 238 117
296 144 1 1 68 -31 149 -69z m-12 -44 l136 -65 0 -185 0 -186 -49 0 c-41 0
-51 4 -56 20 -9 28 -53 57 -108 71 -28 7 -47 17 -47 25 0 16 1 16 69 18 38 1
56 7 76 26 59 55 52 100 -15 100 -46 0 -86 -30 -109 -79 l-16 -36 -3 39 c-2
27 2 44 16 60 49 53 56 122 19 177 -31 46 -63 46 -94 0 -37 -55 -30 -124 19
-177 14 -16 18 -33 16 -60 l-3 -39 -16 36 c-23 49 -63 79 -109 79 -67 0 -74
-45 -15 -100 20 -19 38 -25 76 -26 68 -2 69 -2 69 -18 0 -8 -19 -18 -47 -25
-55 -14 -99 -43 -108 -71 -5 -16 -15 -20 -56 -20 l-49 0 0 186 0 185 133 64
c72 35 133 64 134 64 1 1 62 -28 137 -63z m-105 -22 c26 -33 27 -93 4 -137
l-18 -32 -3 53 c-2 28 -7 52 -12 52 -5 0 -10 -24 -12 -52 l-3 -53 -17 32 c-24
44 -23 104 3 137 11 14 24 26 29 26 5 0 18 -12 29 -26z m-105 -199 c37 -34 32
-48 -9 -24 -42 25 -46 14 -7 -18 22 -18 24 -22 9 -23 -29 0 -72 27 -84 53 -14
31 -9 37 32 37 20 0 42 -9 59 -25z m249 19 c3 -3 1 -17 -6 -31 -12 -26 -55
-53 -84 -53 -15 1 -13 5 10 23 38 32 34 43 -8 18 -41 -24 -46 -10 -9 24 25 23
81 34 97 19z m-96 -169 c40 -17 73 -43 73 -57 0 -4 -67 -8 -150 -8 -82 0 -150
4 -150 8 0 14 33 40 70 56 45 20 111 20 157 1z m223 -100 c0 -13 -40 -15 -300
-15 -260 0 -300 2 -300 15 0 13 40 15 300 15 260 0 300 -2 300 -15z"/>
</g>
</svg>
